<svg data-noselect="" viewBox="113.83967391304347 64.1655599977615 577.5540793367074 433" width="577.5540793367074" height="433" ref="svg_canvas" preserveAspectRatio="none" version="1.1" xmlns="http://www.w3.org/2000/svg" style="background: rgb(234, 201, 174);" class="style-removed">
    <defs></defs>
    <g id="shape_a1N99IJpXX" class="" ref="shape_a1N99IJpXX" key="shape_a1N99IJpXX" transform="translate(193.83967391304347,167) rotate(0,89.34174790584925,113.6655599977615) scale(1,1)" filter="" cursor="move" display="inline" opacity="1">
            <g display="inline"><rect fill="rgba(0,0,0,0)" width="198.6834958116985" height="247.331119995523" x="-10" y="-10"></rect><svg version="1.1" id="图层_1" xmlns="http://www.w3.org/2000/svg" xmlns:xlink="http://www.w3.org/1999/xlink" x="0px" y="0px" width="178.6834958116985" height="227.331119995523" viewBox="0 0 115.7 147.2" enable-background="new 0 0 115.7 147.2" xml:space="preserve" class="style-removed" preserveAspectRatio="none" data-parent="shape_a1N99IJpXX">
<g stop-color="#5151e5">
	<g stop-color="#5151e5">
		<g stop-color="#5151e5">
			
				<linearGradient id="SVGID_1__mMNUoBixDs" gradientUnits="userSpaceOnUse" x1="-628.4714" y1="272.2159" x2="-628.4586" y2="272.2159" gradientTransform="matrix(0.9447 -0.328 0.328 0.9447 546.9102 -381.5832)" stop-color="#5151e5">
				<stop offset="0" stop-color="#72edf2"></stop>
				<stop offset="1" stop-color="#5151e5"></stop>
			</linearGradient>
			<path fill="url(#SVGID_1__mMNUoBixDs)" d="M42.5,81.7L42.5,81.7L42.5,81.7C42.5,81.7,42.5,81.7,42.5,81.7z" stroke-width="0"></path>
			
				<linearGradient id="SVGID_2__djiIF11fMr" gradientUnits="userSpaceOnUse" x1="-635.2884" y1="306.8062" x2="-633.8054" y2="285.889" gradientTransform="matrix(0.9447 -0.328 0.328 0.9447 546.9102 -381.5832)" stop-color="#5151e5">
				<stop offset="0" stop-color="#72edf2"></stop>
				<stop offset="1" stop-color="#5151e5"></stop>
			</linearGradient>
			<path fill="url(#SVGID_2__djiIF11fMr)" d="M39.3,106C39.3,106,39.3,106,39.3,106c-0.5,0.9-0.8,2-0.8,3.1c-0.1,3.5,2.5,6.5,5.9,7
				c3.8,0.6,7.4-2.1,7.8-5.9c0.3-2.2-0.5-4.2-1.9-5.7l0,0c0,0,0,0,0,0c-0.1-0.2-0.3-0.3-0.5-0.4c-1.6-1.5-6.4-7-7.4-15.5
				C42.6,90.2,43,100.7,39.3,106z" stroke-width="0"></path>
		</g>
		<g stop-color="#5151e5">
			
				<linearGradient id="SVGID_3__gAnjpJALzx" gradientUnits="userSpaceOnUse" x1="-628.4714" y1="272.2159" x2="-628.4586" y2="272.2159" gradientTransform="matrix(0.9447 -0.328 0.328 0.9447 546.9102 -381.5832)" stop-color="#5151e5">
				<stop offset="0" stop-color="#72edf2"></stop>
				<stop offset="1" stop-color="#5151e5"></stop>
			</linearGradient>
			<path fill="url(#SVGID_3__gAnjpJALzx)" d="M42.5,81.7L42.5,81.7L42.5,81.7C42.5,81.7,42.5,81.7,42.5,81.7z" stroke-width="0"></path>
			
				<linearGradient id="SVGID_4__d95s2er3az" gradientUnits="userSpaceOnUse" x1="-667.9573" y1="271.7687" x2="-594.2787" y2="258.8645" gradientTransform="matrix(0.9447 -0.328 0.328 0.9447 546.9102 -381.5832)" stop-color="#5151e5">
				<stop offset="3.942397e-02" stop-color="#72edf2"></stop>
				<stop offset="1" stop-color="#5151e5"></stop>
			</linearGradient>
			<path fill="url(#SVGID_4__d95s2er3az)" d="M0.1,76.9c-1,11.1,7.1,21.3,18.2,22.9c5.1,0.7,9.9-0.3,14-2.8c2.6-1.5,6-0.6,7.4,2
				c0,0,0,0.1,0,0.1c1.7,3.4-0.2,6.6-0.3,6.8c3.7-5.3,3.2-15.8,3.1-17.4c-0.3-2.1-0.3-4.4,0-6.9l0,0c0,0,0,0,0,0l0,0
				C46.9,51.2,75.6,53.2,83,54.3c-24-5.6-38.6,2.7-60.2,3.2C11.3,56.6,1.1,65.1,0.1,76.9z" stroke-width="0"></path>
			
				<linearGradient id="SVGID_5__YiJLltUh2G" gradientUnits="userSpaceOnUse" x1="-629.2351" y1="247.9525" x2="-539.114" y2="230.4694" gradientTransform="matrix(0.9447 -0.328 0.328 0.9447 546.9102 -381.5832)" stop-color="#5151e5">
				<stop offset="0" stop-color="#72edf2"></stop>
				<stop offset="1" stop-color="#5151e5"></stop>
			</linearGradient>
			<path fill="url(#SVGID_5__YiJLltUh2G)" d="M92.9,0.4C77.5-2.2,63.1,8.5,61.1,23.9c0,0.2,0,0.3,0,0.5c-0.5,3.8-4.8,30.5-38.2,33.1l0,0
				C44.4,57,59.1,48.7,83,54.3c0.6,0.1,1.2,0.2,1.8,0.3c15.4,2,29.4-9.2,30.8-24.7C116.9,15.7,106.9,2.7,92.9,0.4z" stroke-width="0"></path>
		</g>
	</g>
	
		<linearGradient id="SVGID_6__UtcdMUnU6j" gradientUnits="userSpaceOnUse" x1="667.8522" y1="-3191.2024" x2="693.2859" y2="-3191.2024" gradientTransform="matrix(-0.2885 0.9575 -0.9575 -0.2885 -2803.3938 -1437.838)" stop-color="#5151e5">
		<stop offset="0" stop-color="#72edf2"></stop>
		<stop offset="1" stop-color="#5151e5"></stop>
	</linearGradient>
	<circle fill="url(#SVGID_6__UtcdMUnU6j)" cx="55.8" cy="134.5" r="12.7" stroke-width="0"></circle>
</g>
</svg></g>
        </g><g id="shape_TWkm28u9Fo" class="brand_name" ref="shape_TWkm28u9Fo" key="shape_TWkm28u9Fo" transform="translate(213.88245665092222,16.037793948999933) rotate(0,233.1562263206627,274.58) scale(1,1)" filter="" cursor="move" display="inline" opacity="1">
            <g display="inline"><svg xmlns="http://www.w3.org/2000/svg" version="1.1" xmlns:xlink="http://www.w3.org/1999/xlink" width="611.44" height="549.16" viewBox="0 0 611.44 549.16" preserveAspectRatio="none" data-parent="shape_TWkm28u9Fo"><rect fill="rgba(0,0,0,0)" width="306" height="91" x="76.36" y="229.07999999999998"></rect><g data-width="305.44" transform="translate(76.36, 0)"><path d="M67.58-63.68L67.58-63.68L71.24-59.26Q63.61-57.27 53.41-56.09Q43.22-54.90 33.45-54.52L33.45-54.52Q33.29-55.51 32.87-56.81Q32.45-58.11 31.99-59.10L31.99-59.10Q41.62-59.64 51.39-60.78Q61.16-61.93 67.58-63.68ZM62.23-38.41L62.23-38.41L57.96-40.39Q59.79-43.53 61.85-47.69Q63.91-51.85 65.21-55.36L65.21-55.36L70.33-53.30Q66.28-44.98 62.23-38.41ZM54.75-40.93L54.75-40.93L50.02-39.33Q49.40-42.07 48.22-45.59Q47.04-49.10 45.89-52.23L45.89-52.23L50.32-53.60Q51.62-50.55 52.84-47.08Q54.06-43.60 54.75-40.93ZM43.98-40.09L43.98-40.09L39.33-38.18Q38.49-40.78 36.96-44.21Q35.43-47.65 33.90-50.70L33.90-50.70L38.33-52.31Q40.01-49.33 41.58-45.97Q43.14-42.61 43.98-40.09ZM15.65-45.05L9.93-45.05L9.93-26.88L15.65-26.88L15.65-45.05ZM19.70-26.88L25.81-26.88L25.81-45.05L19.70-45.05L19.70-26.88ZM23.67-16.88L23.67-16.88L27.95-17.56Q29.47-12.98 30.81-7.94Q32.15-2.90 32.83 0.99L32.83 0.99L28.41 1.99Q28.10-0.31 27.49-2.98L27.49-2.98Q18.63-1.45 10.69-0.23L10.69-0.23Q7.10 0.31 4.05 0.84L4.05 0.84L3.21-4.51Q5.04-4.73 7.10-5.04L7.10-5.04Q10.84-5.42 15.27-6.11L15.27-6.11L15.27-22.07L9.93-22.07L9.93-18.56L5.65-18.56L5.65-49.79L15.35-49.79L15.35-63.00L20.16-63.00L20.16-49.79L30.09-49.79L30.09-22.07L20.08-22.07L20.08-6.80L26.27-7.71Q24.97-12.52 23.67-16.88ZM54.14-19.70L71.85-19.70L71.85-14.51L54.14-14.51L54.14-0.23Q54.14 1.99 53.57 3.17Q52.99 4.35 51.39 4.96L51.39 4.96Q49.86 5.57 47.38 5.73Q44.90 5.88 41.31 5.88L41.31 5.88Q41.08 4.66 40.55 3.28Q40.01 1.91 39.40 0.76L39.40 0.76Q42.23 0.84 44.33 0.84Q46.43 0.84 47.27 0.76L47.27 0.76Q48.11 0.76 48.34 0.50Q48.56 0.23 48.56-0.38L48.56-0.38L48.56-14.51L31.00-14.51L31.00-19.70L48.56-19.70L48.56-24.74Q53.68-27.95 58.26-32.45L58.26-32.45L34.90-32.45L34.90-37.49L63.15-37.49L64.30-37.80L67.73-35.05Q61.78-28.56 54.14-23.29L54.14-23.29L54.14-19.70Z" transform="translate(0 303.08) " fill="#3a3adb" stroke="rgb(58, 58, 219)" stroke-width="0.127" data-glyph-w="76.36" data-glyph-h="76.36" data-glyph-ascender="67.1968" data-glyph-descender="-9.1632"></path><path d="M14.51-45.59L9.77-45.59L9.77-28.10L14.51-28.10L14.51-45.59ZM18.02-28.10L23.14-28.10L23.14-45.59L18.02-45.59L18.02-28.10ZM73.00-52.92L73.00-48.03L55.74-48.03Q54.29-43.83 52.46-40.47L52.46-40.47L68.42-40.47L69.26-40.78L72.62-38.56Q68.57-32.30 63.38-27.34L63.38-27.34L63.38-20.69L72.85-20.69L72.85-15.81L63.38-15.81L63.38 0Q63.38 2.06 62.92 3.21Q62.46 4.35 61.09 4.96L61.09 4.96Q58.64 5.96 52.46 5.96L52.46 5.96Q52.31 4.81 51.81 3.47Q51.31 2.14 50.78 0.99L50.78 0.99Q55.82 1.07 57.35 0.99L57.35 0.99Q57.96 0.99 58.19 0.76Q58.42 0.53 58.42 0L58.42 0L58.42-15.81L49.48-15.81L49.48-20.69L58.42-20.69L58.42-28.79Q61.93-31.69 64.91-35.74L64.91-35.74L51.85-35.74L51.85-39.40Q51.54-38.87 51.24-38.41L51.24-38.41Q50.86-37.95 50.55-37.42L50.55-37.42Q49.79-37.95 48.45-38.79Q47.11-39.63 46.20-40.17L46.20-40.17Q48.11-42.91 49.71-46.20L49.71-46.20L37.72-46.20L37.72-35.13L48.64-35.13L48.64-32.76Q48.26-14.20 47.69-6.38Q47.11 1.45 45.89 2.98L45.89 2.98Q44.44 4.96 42.07 5.19L42.07 5.19Q39.78 5.42 36.27 5.19L36.27 5.19Q36.19 4.12 35.89 2.86Q35.58 1.60 35.13 0.61L35.13 0.61Q38.56 0.84 39.94 0.84L39.94 0.84Q40.55 0.84 41.01 0.65Q41.46 0.46 41.77-0.15L41.77-0.15Q42.53-1.07 43.03-7.90Q43.53-14.74 43.83-30.39L43.83-30.39L37.65-30.39Q37.57-21.69 35.77-12.06Q33.98-2.44 28.86 5.96L28.86 5.96Q28.10 5.35 26.92 4.70Q25.73 4.05 24.74 3.59L24.74 3.59Q26.57 0.84 27.80-2.06L27.80-2.06L25.05-1.37Q24.97-2.75 24.74-4.43L24.74-4.43Q24.66-4.73 24.66-4.96L24.66-4.96Q12.98-2.98 3.82-1.30L3.82-1.30L2.98-6.26Q6.26-6.64 10.31-7.33L10.31-7.33Q12.14-7.56 14.13-7.87L14.13-7.87L14.13-23.44L9.77-23.44L9.77-20.62L5.73-20.62L5.73-50.24L14.13-50.24L14.13-63.76L18.48-63.76L18.48-50.24L27.18-50.24L27.18-23.44L18.48-23.44L18.48-8.55L23.82-9.39Q22.76-13.74 21.46-17.87L21.46-17.87L25.28-18.78Q27.80-11.53 28.86-4.51L28.86-4.51Q31.61-12.14 32.38-20.01Q33.14-27.87 33.14-34.29L33.14-34.29L33.14-46.20L28.25-46.20L28.25-51.01L38.56-51.01Q37.65-53.38 36.08-56.24Q34.51-59.10 32.83-61.55L32.83-61.55L37.57-63.53Q39.48-61.01 41.12-58.11Q42.76-55.21 43.68-52.92L43.68-52.92L39.78-51.01L49.94-51.01L49.94-46.81Q53.22-54.52 54.60-63.84L54.60-63.84L59.71-63.07Q58.80-57.80 57.27-52.92L57.27-52.92L73.00-52.92Z" transform="translate(76.36 303.08) " fill="#3a3adb" stroke="rgb(58, 58, 219)" stroke-width="0.127" data-glyph-w="76.36" data-glyph-h="76.36" data-glyph-ascender="67.1968" data-glyph-descender="-9.1632"></path><path d="M12.68 5.89L12.68-14.91Q9.25-9.32 5.00-4.62L5.00-4.62L2.09-8.80Q7.61-20.95 11.56-35.05L11.56-35.05L3.28-35.05L3.28-40.34L12.68-40.34L12.68-51.53Q8.28-51.16 4.25-51.08L4.25-51.08L3.28-56.60Q15.36-57.94 27.81-61.74L27.81-61.74L30.20-54.06Q26.85-53.39 21.77-52.65L21.77-52.65L21.77-40.34L30.80-40.34L30.80-35.05L21.77-35.05L21.77-30.87L23.56-31.77Q29.83-25.80 33.63-18.20L33.63-18.20L25.88-13.27Q24.09-17.75 21.77-23.19L21.77-23.19L21.77 5.89L12.68 5.89ZM35.20-38.55Q35.64-38.55 40.27-35.79L40.27-35.79Q46.16-32.21 50.11-28.49L50.11-28.49L44.37-22.00Q38.18-28.63 31.69-34.82L31.69-34.82L35.20-38.55ZM37.43-56.82Q37.88-56.82 42.51-54.06L42.51-54.06Q48.40-50.56 52.35-46.76L52.35-46.76L46.61-40.27Q40.42-46.98 33.93-53.09L33.93-53.09L37.43-56.82ZM54.81-11.48L54.81 5.89L63.98 5.89L63.98-12.45L73.60-13.50L73.00-18.79L63.98-17.82L63.98-60.92L54.81-60.92L54.81-16.78L30.20-14.17L30.80-8.87L54.81-11.48Z" transform="translate(152.72 303.08) " fill="#3a3adb" stroke="rgb(58, 58, 219)" stroke-width="0.127" data-glyph-w="76.36" data-glyph-h="74.5703125" data-glyph-ascender="65.621875" data-glyph-descender="-8.9484375"></path><path d="M14.47 5.89L4.70 5.89L3.80 0.60L9.10 0.60Q10.66 0.60 10.66-0.97L10.66-0.97L10.66-17.75Q6.56-16.48 3.88-15.88L3.88-15.88L2.09-24.61Q6.19-25.20 10.66-26.10L10.66-26.10L10.66-42.95L3.21-42.95L3.21-48.25L10.66-48.25L10.66-60.92L19.76-60.92L19.76-48.25L25.88-48.25L25.88-42.95L19.76-42.95L19.76-28.04Q23.56-28.86 25.95-29.53L25.95-29.53L27.29-24.68Q23.71-22.82 19.76-21.10L19.76-21.10L19.76 0.60Q19.76 2.76 18.20 4.33L18.20 4.33Q16.63 5.89 14.47 5.89L14.47 5.89ZM74.27-1.42L68.98 6.64Q59.66 2.54 50.71-4.55L50.71-4.55Q41.01 2.16 27.96 6.64L27.96 6.64L25.43 2.54Q35.12-1.72 44.89-9.40L44.89-9.40Q35.79-17.75 30.57-25.35L30.57-25.35L34.30-28.49Q40.42-21.63 50.63-14.39L50.63-14.39Q58.46-21.92 61.97-29.98L61.97-29.98L29.01-29.98L29.01-35.27L46.01-35.27L46.01-45.56L28.04-45.56L28.04-50.86L46.01-50.86L46.01-60.92L55.11-60.92L55.11-50.86L73.15-50.86L73.15-45.56L55.11-45.56L55.11-35.27L71.07-35.27L71.07-29.98Q69.13-20.28 57.42-9.77L57.42-9.77Q65.85-4.62 74.27-1.42L74.27-1.42Z" transform="translate(229.07999999999998 303.08) " fill="#3a3adb" stroke="rgb(58, 58, 219)" stroke-width="0.127" data-glyph-w="76.36" data-glyph-h="74.5703125" data-glyph-ascender="65.621875" data-glyph-descender="-8.9484375"></path></g></svg></g>
        </g><g id="shape_6hxZExbxrt" class="brand_slogan" ref="shape_6hxZExbxrt" key="shape_6hxZExbxrt" transform="translate(263.6637532497509,242.15060547373645) rotate(0,154.08478964786113,103.19) scale(1,1)" filter="" cursor="move" display="inline" opacity="1">
            <g display="inline"><svg xmlns="http://www.w3.org/2000/svg" version="1.1" xmlns:xlink="http://www.w3.org/1999/xlink" width="433.92" height="206.38" viewBox="0 0 433.92 206.38" preserveAspectRatio="none" data-parent="shape_6hxZExbxrt"><rect fill="rgba(0,0,0,0)" width="319" height="34" x="28.73" y="86.19"></rect><g data-width="318.233905234375" transform="translate(28.73, 0)"><path d="M10.21-8.67L5.12-16.51L5.12-3.31L1.40-3.31L1.40-23.34L5.12-23.34L11.77-13.09L18.43-23.34L22.15-23.34L22.15-3.31L18.43-3.31L18.43-16.53L13.34-8.67L10.21-8.67Z" transform="translate(0 112.19) " fill="#3a3adb" stroke="rgb(58, 58, 219)" stroke-width="0.048" data-glyph-w="23.5535498046875" data-glyph-h="29.936435546875" data-glyph-ascender="24.07259765625" data-glyph-descender="-5.863837890625"></path><path d="M6.12-7.81L14.48-7.81L16.30-3.31L20.31-3.31L12.22-23.34L8.37-23.34L0.28-3.31L4.29-3.31L6.12-7.81ZM12.98-11.53L7.62-11.53L10.30-18.17L12.98-11.53Z" transform="translate(23.5535498046875 112.19) " fill="#3a3adb" stroke="rgb(58, 58, 219)" stroke-width="0.048" data-glyph-w="20.59357421875" data-glyph-h="29.936435546875" data-glyph-ascender="24.07259765625" data-glyph-descender="-5.863837890625"></path><path d="M8.45-3.31L8.45-12.51L0.28-23.34L4.94-23.34L10.30-16.23L15.66-23.34L20.31-23.34L12.16-12.51L12.16-3.31L8.45-3.31Z" transform="translate(44.1471240234375 112.19) " fill="#3a3adb" stroke="rgb(58, 58, 219)" stroke-width="0.048" data-glyph-w="20.59357421875" data-glyph-h="29.936435546875" data-glyph-ascender="24.07259765625" data-glyph-descender="-5.863837890625"></path><path d="M1.40-23.34L14.28-23.34L14.28-19.63L5.12-19.63L5.12-15.18L14.28-15.18L14.28-11.46L5.12-11.46L5.12-3.31L1.40-3.31L1.40-23.34Z" transform="translate(64.7406982421875 112.19) " fill="#3a3adb" stroke="rgb(58, 58, 219)" stroke-width="0.048" data-glyph-w="15.122529296875" data-glyph-h="29.936435546875" data-glyph-ascender="24.07259765625" data-glyph-descender="-5.863837890625"></path><path d="M5.12-23.34L5.12-7.03L13.57-7.03L13.57-3.31L1.40-3.31L1.40-23.34L5.12-23.34Z" transform="translate(79.8632275390625 112.19) " fill="#3a3adb" stroke="rgb(58, 58, 219)" stroke-width="0.048" data-glyph-w="14.4070849609375" data-glyph-h="29.936435546875" data-glyph-ascender="24.07259765625" data-glyph-descender="-5.863837890625"></path><path d="M8.45-3.31L8.45-12.51L0.28-23.34L4.94-23.34L10.30-16.23L15.66-23.34L20.31-23.34L12.16-12.51L12.16-3.31L8.45-3.31Z" transform="translate(94.2703125 112.19) " fill="#3a3adb" stroke="rgb(58, 58, 219)" stroke-width="0.048" data-glyph-w="20.59357421875" data-glyph-h="29.936435546875" data-glyph-ascender="24.07259765625" data-glyph-descender="-5.863837890625"></path><path d="" transform="translate(114.86388671875 112.19) " fill="#3a3adb" stroke="rgb(58, 58, 219)" stroke-width="0.048" data-glyph-w="11.43454" data-glyph-h="28.73" data-glyph-ascender="25.282400000000003" data-glyph-descender="-3.4476000000000004"></path><path d="M6.50-3.31L6.50-19.63L0.84-19.63L0.84-23.34L15.87-23.34L15.87-19.63L10.21-19.63L10.21-3.31L6.50-3.31Z" transform="translate(126.29842671875 112.19) " fill="#3a3adb" stroke="rgb(58, 58, 219)" stroke-width="0.048" data-glyph-w="16.7077294921875" data-glyph-h="29.936435546875" data-glyph-ascender="24.07259765625" data-glyph-descender="-5.863837890625"></path><path d="M1.40-23.34L15.71-23.34L15.71-19.63L5.12-19.63L5.12-15.18L15.71-15.18L15.71-11.46L5.12-11.46L5.12-7.03L15.71-7.03L15.71-3.31L1.40-3.31L1.40-23.34Z" transform="translate(143.0061562109375 112.19) " fill="#3a3adb" stroke="rgb(58, 58, 219)" stroke-width="0.048" data-glyph-w="16.55341796875" data-glyph-h="29.936435546875" data-glyph-ascender="24.07259765625" data-glyph-descender="-5.863837890625"></path><path d="M11.22-23.71Q6.92-23.71 3.89-20.66L3.89-20.66Q0.84-17.62 0.84-13.33L0.84-13.33Q0.84-9.02 3.89-5.99L3.89-5.99Q6.92-2.95 11.22-2.95L11.22-2.95Q16.05-2.95 19.16-6.65L19.16-6.65L16.31-9.05Q14.32-6.66 11.22-6.66L11.22-6.66Q8.46-6.66 6.51-8.61L6.51-8.61Q4.56-10.56 4.56-13.33L4.56-13.33Q4.56-16.08 6.51-18.03L6.51-18.03Q8.46-19.98 11.22-19.98L11.22-19.98Q14.32-19.98 16.31-17.61L16.31-17.61L19.16-19.99Q16.05-23.71 11.22-23.71L11.22-23.71Z" transform="translate(159.5595741796875 112.19) " fill="#3a3adb" stroke="rgb(58, 58, 219)" stroke-width="0.048" data-glyph-w="20.004384765625" data-glyph-h="29.936435546875" data-glyph-ascender="24.07259765625" data-glyph-descender="-5.863837890625"></path><path d="M5.12-11.46L12.71-11.46L12.71-3.31L16.43-3.31L16.43-23.34L12.71-23.34L12.71-15.18L5.12-15.18L5.12-23.34L1.40-23.34L1.40-3.31L5.12-3.31L5.12-11.46Z" transform="translate(179.5639589453125 112.19) " fill="#3a3adb" stroke="rgb(58, 58, 219)" stroke-width="0.048" data-glyph-w="17.8299951171875" data-glyph-h="29.936435546875" data-glyph-ascender="24.07259765625" data-glyph-descender="-5.863837890625"></path><path d="M13.43-10.31L13.43-23.34L17.14-23.34L17.14-3.31L13.48-3.31L5.12-16.34L5.12-3.31L1.40-3.31L1.40-23.34L5.06-23.34L13.43-10.31Z" transform="translate(197.3939540625 112.19) " fill="#3a3adb" stroke="rgb(58, 58, 219)" stroke-width="0.048" data-glyph-w="18.545439453125" data-glyph-h="29.936435546875" data-glyph-ascender="24.07259765625" data-glyph-descender="-5.863837890625"></path><path d="M11.22-19.98L11.22-19.98Q13.97-19.98 15.92-18.03L15.92-18.03Q17.87-16.08 17.87-13.33L17.87-13.33Q17.87-10.56 15.92-8.61L15.92-8.61Q13.97-6.66 11.22-6.66L11.22-6.66Q8.46-6.66 6.51-8.61L6.51-8.61Q4.56-10.56 4.56-13.33L4.56-13.33Q4.56-16.08 6.51-18.03L6.51-18.03Q8.46-19.98 11.22-19.98ZM11.22-23.71Q6.92-23.71 3.89-20.66L3.89-20.66Q0.84-17.62 0.84-13.33L0.84-13.33Q0.84-9.02 3.89-5.99L3.89-5.99Q6.92-2.95 11.22-2.95L11.22-2.95Q15.52-2.95 18.56-5.99L18.56-5.99Q21.59-9.02 21.59-13.33L21.59-13.33Q21.59-17.62 18.56-20.66L18.56-20.66Q15.52-23.71 11.22-23.71L11.22-23.71Z" transform="translate(215.939393515625 112.19) " fill="#3a3adb" stroke="rgb(58, 58, 219)" stroke-width="0.048" data-glyph-w="22.431284179687502" data-glyph-h="29.936435546875" data-glyph-ascender="24.07259765625" data-glyph-descender="-5.863837890625"></path><path d="M5.12-23.34L5.12-7.03L13.57-7.03L13.57-3.31L1.40-3.31L1.40-23.34L5.12-23.34Z" transform="translate(238.3706776953125 112.19) " fill="#3a3adb" stroke="rgb(58, 58, 219)" stroke-width="0.048" data-glyph-w="14.4070849609375" data-glyph-h="29.936435546875" data-glyph-ascender="24.07259765625" data-glyph-descender="-5.863837890625"></path><path d="M11.22-19.98L11.22-19.98Q13.97-19.98 15.92-18.03L15.92-18.03Q17.87-16.08 17.87-13.33L17.87-13.33Q17.87-10.56 15.92-8.61L15.92-8.61Q13.97-6.66 11.22-6.66L11.22-6.66Q8.46-6.66 6.51-8.61L6.51-8.61Q4.56-10.56 4.56-13.33L4.56-13.33Q4.56-16.08 6.51-18.03L6.51-18.03Q8.46-19.98 11.22-19.98ZM11.22-23.71Q6.92-23.71 3.89-20.66L3.89-20.66Q0.84-17.62 0.84-13.33L0.84-13.33Q0.84-9.02 3.89-5.99L3.89-5.99Q6.92-2.95 11.22-2.95L11.22-2.95Q15.52-2.95 18.56-5.99L18.56-5.99Q21.59-9.02 21.59-13.33L21.59-13.33Q21.59-17.62 18.56-20.66L18.56-20.66Q15.52-23.71 11.22-23.71L11.22-23.71Z" transform="translate(252.77776265625002 112.19) " fill="#3a3adb" stroke="rgb(58, 58, 219)" stroke-width="0.048" data-glyph-w="22.431284179687502" data-glyph-h="29.936435546875" data-glyph-ascender="24.07259765625" data-glyph-descender="-5.863837890625"></path><path d="M10.49-15.18L21.42-15.18Q21.59-14.27 21.59-13.33L21.59-13.33Q21.59-9.02 18.55-5.99L18.55-5.99Q15.52-2.95 11.21-2.95L11.21-2.95Q6.92-2.95 3.87-5.99L3.87-5.99Q0.84-9.02 0.84-13.33L0.84-13.33Q0.84-17.62 3.87-20.66L3.87-20.66Q6.92-23.71 11.21-23.71L11.21-23.71Q16.05-23.71 19.16-19.99L19.16-19.99L16.31-17.61Q14.31-19.98 11.21-19.98L11.21-19.98Q8.46-19.98 6.51-18.03L6.51-18.03Q4.56-16.08 4.56-13.33L4.56-13.33Q4.56-10.56 6.51-8.61L6.51-8.61Q8.46-6.66 11.21-6.66L11.21-6.66Q13.97-6.66 15.92-8.61L15.92-8.61Q17.17-9.86 17.62-11.46L17.62-11.46L10.49-11.46L10.49-15.18Z" transform="translate(275.2090468359375 112.19) " fill="#3a3adb" stroke="rgb(58, 58, 219)" stroke-width="0.048" data-glyph-w="22.431284179687502" data-glyph-h="29.936435546875" data-glyph-ascender="24.07259765625" data-glyph-descender="-5.863837890625"></path><path d="M8.45-3.31L8.45-12.51L0.28-23.34L4.94-23.34L10.30-16.23L15.66-23.34L20.31-23.34L12.16-12.51L12.16-3.31L8.45-3.31Z" transform="translate(297.640331015625 112.19) " fill="#3a3adb" stroke="rgb(58, 58, 219)" stroke-width="0.048" data-glyph-w="20.59357421875" data-glyph-h="29.936435546875" data-glyph-ascender="24.07259765625" data-glyph-descender="-5.863837890625"></path></g></svg></g>
        </g>
  </svg>